<mxfile host="Electron" agent="Mozilla/5.0 (Windows NT 10.0; Win64; x64) AppleWebKit/537.36 (KHTML, like Gecko) draw.io/25.0.2 Chrome/128.0.6613.186 Electron/32.2.5 Safari/537.36" version="25.0.2">
  <diagram name="Page-1" id="omHXfLL1mUXTeN7tt3VP">
    <mxGraphModel dx="369" dy="241" grid="1" gridSize="10" guides="1" tooltips="1" connect="1" arrows="1" fold="1" page="1" pageScale="1" pageWidth="850" pageHeight="1100" math="0" shadow="0">
      <root>
        <mxCell id="0" />
        <mxCell id="1" parent="0" />
        <mxCell id="02hc7cvoN-hHNLFqZC7G-1" value="&lt;font style=&quot;font-size: 11px;&quot;&gt;Split into&lt;/font&gt;&lt;div&gt;&lt;font style=&quot;font-size: 11px;&quot;&gt;words&lt;/font&gt;&lt;/div&gt;" style="ellipse;whiteSpace=wrap;html=1;aspect=fixed;fillColor=none;" vertex="1" parent="1">
          <mxGeometry x="140" y="160" width="50" height="50" as="geometry" />
        </mxCell>
        <mxCell id="02hc7cvoN-hHNLFqZC7G-4" value="&lt;font style=&quot;font-size: 11px;&quot;&gt;Verify&lt;/font&gt;" style="ellipse;whiteSpace=wrap;html=1;aspect=fixed;fillColor=none;" vertex="1" parent="1">
          <mxGeometry x="240" y="220" width="50" height="50" as="geometry" />
        </mxCell>
        <mxCell id="02hc7cvoN-hHNLFqZC7G-5" value="&lt;font style=&quot;font-size: 11px;&quot;&gt;Notify&lt;/font&gt;" style="ellipse;whiteSpace=wrap;html=1;aspect=fixed;fillColor=none;" vertex="1" parent="1">
          <mxGeometry x="340" y="250" width="50" height="50" as="geometry" />
        </mxCell>
        <mxCell id="02hc7cvoN-hHNLFqZC7G-7" value="&lt;font style=&quot;font-size: 11px;&quot;&gt;Update&lt;/font&gt;&lt;div&gt;&lt;font style=&quot;font-size: 11px;&quot;&gt;DC&lt;/font&gt;&lt;/div&gt;" style="ellipse;whiteSpace=wrap;html=1;aspect=fixed;fillColor=none;" vertex="1" parent="1">
          <mxGeometry x="440" y="300" width="50" height="50" as="geometry" />
        </mxCell>
        <mxCell id="02hc7cvoN-hHNLFqZC7G-8" value="&lt;font style=&quot;font-size: 11px;&quot;&gt;Update&lt;/font&gt;&lt;div&gt;&lt;span style=&quot;font-size: 11px;&quot;&gt;MSL&lt;/span&gt;&lt;/div&gt;" style="ellipse;whiteSpace=wrap;html=1;aspect=fixed;fillColor=none;" vertex="1" parent="1">
          <mxGeometry x="440" y="200" width="50" height="50" as="geometry" />
        </mxCell>
        <mxCell id="02hc7cvoN-hHNLFqZC7G-23" value="DC" style="text;html=1;align=center;verticalAlign=middle;whiteSpace=wrap;rounded=0;" vertex="1" parent="1">
          <mxGeometry x="100" y="170" width="30" height="10" as="geometry" />
        </mxCell>
        <mxCell id="02hc7cvoN-hHNLFqZC7G-24" value="DCT&lt;span style=&quot;color: rgba(0, 0, 0, 0); font-family: monospace; font-size: 0px; text-align: start; text-wrap: nowrap;&quot;&gt;%3CmxGraphModel%3E%3Croot%3E%3CmxCell%20id%3D%220%22%2F%3E%3CmxCell%20id%3D%221%22%20parent%3D%220%22%2F%3E%3CmxCell%20id%3D%222%22%20value%3D%22DC%22%20style%3D%22text%3Bhtml%3D1%3Balign%3Dcenter%3BverticalAlign%3Dmiddle%3BwhiteSpace%3Dwrap%3Brounded%3D0%3B%22%20vertex%3D%221%22%20parent%3D%221%22%3E%3CmxGeometry%20x%3D%2290%22%20y%3D%22160%22%20width%3D%2240%22%20height%3D%2220%22%20as%3D%22geometry%22%2F%3E%3C%2FmxCell%3E%3C%2Froot%3E%3C%2FmxGraphModel%3E&lt;/span&gt;" style="text;html=1;align=center;verticalAlign=middle;whiteSpace=wrap;rounded=0;" vertex="1" parent="1">
          <mxGeometry x="210" y="275" width="30" height="10" as="geometry" />
        </mxCell>
        <mxCell id="02hc7cvoN-hHNLFqZC7G-25" value="WL" style="text;html=1;align=center;verticalAlign=middle;whiteSpace=wrap;rounded=0;" vertex="1" parent="1">
          <mxGeometry x="200" y="195" width="30" height="10" as="geometry" />
        </mxCell>
        <mxCell id="02hc7cvoN-hHNLFqZC7G-28" value="C&lt;span style=&quot;color: rgba(0, 0, 0, 0); font-family: monospace; font-size: 0px; text-align: start; text-wrap: nowrap;&quot;&gt;%3CmxGraphModel%3E%3Croot%3E%3CmxCell%20id%3D%220%22%2F%3E%3CmxCell%20id%3D%221%22%20parent%3D%220%22%2F%3E%3CmxCell%20id%3D%222%22%20value%3D%22WL%22%20style%3D%22text%3Bhtml%3D1%3Balign%3Dcenter%3BverticalAlign%3Dmiddle%3BwhiteSpace%3Dwrap%3Brounded%3D0%3B%22%20vertex%3D%221%22%20parent%3D%221%22%3E%3CmxGeometry%20x%3D%22200%22%20y%3D%22190%22%20width%3D%2240%22%20height%3D%2220%22%20as%3D%22geometry%22%2F%3E%3C%2FmxCell%3E%3C%2Froot%3E%3C%2FmxGraphModel%3E&lt;/span&gt;WL" style="text;html=1;align=center;verticalAlign=middle;whiteSpace=wrap;rounded=0;" vertex="1" parent="1">
          <mxGeometry x="270" y="200" width="40" height="10" as="geometry" />
        </mxCell>
        <mxCell id="02hc7cvoN-hHNLFqZC7G-29" value="IWL" style="text;html=1;align=center;verticalAlign=middle;whiteSpace=wrap;rounded=0;" vertex="1" parent="1">
          <mxGeometry x="290" y="267.5" width="30" height="15" as="geometry" />
        </mxCell>
        <mxCell id="02hc7cvoN-hHNLFqZC7G-30" value="&lt;span style=&quot;font-size: 15px;&quot;&gt;*&lt;/span&gt;" style="text;html=1;align=center;verticalAlign=middle;whiteSpace=wrap;rounded=0;" vertex="1" parent="1">
          <mxGeometry x="220" y="237.5" width="20" height="15" as="geometry" />
        </mxCell>
        <mxCell id="02hc7cvoN-hHNLFqZC7G-31" value="&lt;span style=&quot;font-size: 15px;&quot;&gt;*&lt;/span&gt;" style="text;html=1;align=center;verticalAlign=middle;whiteSpace=wrap;rounded=0;" vertex="1" parent="1">
          <mxGeometry x="320" y="285" width="20" height="15" as="geometry" />
        </mxCell>
        <mxCell id="02hc7cvoN-hHNLFqZC7G-33" value="UD" style="text;html=1;align=center;verticalAlign=middle;whiteSpace=wrap;rounded=0;" vertex="1" parent="1">
          <mxGeometry x="330" y="330" width="30" height="20" as="geometry" />
        </mxCell>
        <mxCell id="02hc7cvoN-hHNLFqZC7G-34" value="&lt;span style=&quot;font-size: 15px;&quot;&gt;*&lt;/span&gt;" style="text;html=1;align=center;verticalAlign=middle;whiteSpace=wrap;rounded=0;" vertex="1" parent="1">
          <mxGeometry x="390" y="270" width="20" height="15" as="geometry" />
        </mxCell>
        <mxCell id="02hc7cvoN-hHNLFqZC7G-35" value="&lt;span style=&quot;font-size: 15px;&quot;&gt;*&lt;/span&gt;" style="text;html=1;align=center;verticalAlign=middle;whiteSpace=wrap;rounded=0;" vertex="1" parent="1">
          <mxGeometry x="290" y="235" width="20" height="15" as="geometry" />
        </mxCell>
        <mxCell id="02hc7cvoN-hHNLFqZC7G-36" value="UIWL" style="text;html=1;align=center;verticalAlign=middle;whiteSpace=wrap;rounded=0;rotation=-20;" vertex="1" parent="1">
          <mxGeometry x="385" y="237.5" width="40" height="10" as="geometry" />
        </mxCell>
        <mxCell id="02hc7cvoN-hHNLFqZC7G-37" value="UCWL" style="text;html=1;align=center;verticalAlign=middle;whiteSpace=wrap;rounded=0;rotation=15;" vertex="1" parent="1">
          <mxGeometry x="385" y="310" width="40" height="10" as="geometry" />
        </mxCell>
        <mxCell id="02hc7cvoN-hHNLFqZC7G-38" value="UDCT" style="text;html=1;align=center;verticalAlign=middle;whiteSpace=wrap;rounded=0;" vertex="1" parent="1">
          <mxGeometry x="490" y="335" width="40" height="10" as="geometry" />
        </mxCell>
        <mxCell id="02hc7cvoN-hHNLFqZC7G-39" value="UMSL" style="text;html=1;align=center;verticalAlign=middle;whiteSpace=wrap;rounded=0;" vertex="1" parent="1">
          <mxGeometry x="490" y="230" width="40" height="20" as="geometry" />
        </mxCell>
        <mxCell id="02hc7cvoN-hHNLFqZC7G-49" value="Legends" style="swimlane;fontStyle=0;childLayout=stackLayout;horizontal=1;startSize=30;horizontalStack=0;resizeParent=1;resizeParentMax=0;resizeLast=0;collapsible=1;marginBottom=0;whiteSpace=wrap;html=1;" vertex="1" parent="1">
          <mxGeometry x="620" y="160" width="180" height="200" as="geometry" />
        </mxCell>
        <mxCell id="02hc7cvoN-hHNLFqZC7G-50" value="&lt;div&gt;DC : Document&lt;/div&gt;&lt;div&gt;WL: Word List&lt;/div&gt;&lt;div&gt;DCT: Dictionary&lt;/div&gt;&lt;div&gt;CWL: Correct Word List&lt;/div&gt;&lt;div&gt;IWL: Incorrect Word List&lt;/div&gt;&lt;div&gt;UD: User Decision&lt;/div&gt;&lt;div&gt;UIWL: User Incorrect Word Lis&lt;span style=&quot;background-color: initial;&quot;&gt;t&lt;/span&gt;&lt;/div&gt;&lt;div&gt;&lt;span style=&quot;background-color: initial;&quot;&gt;MSL: Miss Spelled Word List&lt;/span&gt;&lt;/div&gt;&lt;div&gt;&lt;span style=&quot;background-color: initial;&quot;&gt;UMSL: Updated MSL&lt;/span&gt;&lt;/div&gt;&lt;div&gt;&lt;span style=&quot;background-color: initial;&quot;&gt;UCWL: User Correct Word List&lt;/span&gt;&lt;/div&gt;&lt;div&gt;&lt;span style=&quot;background-color: initial;&quot;&gt;UDCT: Updated DCT&lt;/span&gt;&lt;/div&gt;&lt;div&gt;&lt;br&gt;&lt;/div&gt;" style="text;strokeColor=none;fillColor=none;align=left;verticalAlign=top;spacingLeft=4;spacingRight=4;overflow=hidden;points=[[0,0.5],[1,0.5]];portConstraint=eastwest;rotatable=0;whiteSpace=wrap;html=1;" vertex="1" parent="02hc7cvoN-hHNLFqZC7G-49">
          <mxGeometry y="30" width="180" height="170" as="geometry" />
        </mxCell>
        <mxCell id="02hc7cvoN-hHNLFqZC7G-54" value="MSL" style="text;html=1;align=center;verticalAlign=middle;whiteSpace=wrap;rounded=0;" vertex="1" parent="1">
          <mxGeometry x="445" y="170" width="40" height="10" as="geometry" />
        </mxCell>
        <mxCell id="02hc7cvoN-hHNLFqZC7G-55" value="&lt;span style=&quot;font-size: 15px;&quot;&gt;*&lt;/span&gt;" style="text;html=1;align=center;verticalAlign=middle;whiteSpace=wrap;rounded=0;" vertex="1" parent="1">
          <mxGeometry x="420" y="210" width="20" height="15" as="geometry" />
        </mxCell>
        <mxCell id="02hc7cvoN-hHNLFqZC7G-58" value="" style="endArrow=open;endSize=8;html=1;rounded=0;entryX=0.294;entryY=0.952;entryDx=0;entryDy=0;entryPerimeter=0;strokeWidth=1;" edge="1" parent="1" target="02hc7cvoN-hHNLFqZC7G-5">
          <mxGeometry width="160" relative="1" as="geometry">
            <mxPoint x="330" y="340" as="sourcePoint" />
            <mxPoint x="460" y="380" as="targetPoint" />
          </mxGeometry>
        </mxCell>
        <mxCell id="02hc7cvoN-hHNLFqZC7G-59" value="" style="endArrow=open;endSize=8;html=1;rounded=0;entryX=0.008;entryY=0.39;entryDx=0;entryDy=0;entryPerimeter=0;strokeWidth=1;exitX=1;exitY=1;exitDx=0;exitDy=0;" edge="1" parent="1" source="02hc7cvoN-hHNLFqZC7G-5" target="02hc7cvoN-hHNLFqZC7G-7">
          <mxGeometry width="160" relative="1" as="geometry">
            <mxPoint x="340" y="350" as="sourcePoint" />
            <mxPoint x="365" y="308" as="targetPoint" />
          </mxGeometry>
        </mxCell>
        <mxCell id="02hc7cvoN-hHNLFqZC7G-60" value="" style="endArrow=open;endSize=8;html=1;rounded=0;strokeWidth=1;exitX=1;exitY=0.5;exitDx=0;exitDy=0;" edge="1" parent="1" source="02hc7cvoN-hHNLFqZC7G-7">
          <mxGeometry width="160" relative="1" as="geometry">
            <mxPoint x="350" y="360" as="sourcePoint" />
            <mxPoint x="530" y="325" as="targetPoint" />
          </mxGeometry>
        </mxCell>
        <mxCell id="02hc7cvoN-hHNLFqZC7G-62" value="" style="endArrow=open;endSize=8;html=1;rounded=0;strokeWidth=1;exitX=1;exitY=0.5;exitDx=0;exitDy=0;" edge="1" parent="1" source="02hc7cvoN-hHNLFqZC7G-8">
          <mxGeometry width="160" relative="1" as="geometry">
            <mxPoint x="360" y="370" as="sourcePoint" />
            <mxPoint x="530" y="225" as="targetPoint" />
          </mxGeometry>
        </mxCell>
        <mxCell id="02hc7cvoN-hHNLFqZC7G-63" value="" style="endArrow=open;endSize=8;html=1;rounded=0;strokeWidth=1;entryX=0.42;entryY=0.045;entryDx=0;entryDy=0;entryPerimeter=0;" edge="1" parent="1" target="02hc7cvoN-hHNLFqZC7G-8">
          <mxGeometry width="160" relative="1" as="geometry">
            <mxPoint x="440" y="160" as="sourcePoint" />
            <mxPoint x="540" y="235" as="targetPoint" />
          </mxGeometry>
        </mxCell>
        <mxCell id="02hc7cvoN-hHNLFqZC7G-64" value="" style="endArrow=open;endSize=8;html=1;rounded=0;strokeWidth=1;" edge="1" parent="1" target="02hc7cvoN-hHNLFqZC7G-1">
          <mxGeometry width="160" relative="1" as="geometry">
            <mxPoint x="100" y="185" as="sourcePoint" />
            <mxPoint x="365" y="308" as="targetPoint" />
          </mxGeometry>
        </mxCell>
        <mxCell id="02hc7cvoN-hHNLFqZC7G-67" value="" style="endArrow=open;endSize=8;html=1;rounded=0;strokeWidth=1;" edge="1" parent="1" source="02hc7cvoN-hHNLFqZC7G-1" target="02hc7cvoN-hHNLFqZC7G-4">
          <mxGeometry width="160" relative="1" as="geometry">
            <mxPoint x="110" y="195" as="sourcePoint" />
            <mxPoint x="150" y="195" as="targetPoint" />
          </mxGeometry>
        </mxCell>
        <mxCell id="02hc7cvoN-hHNLFqZC7G-68" value="" style="endArrow=open;endSize=8;html=1;rounded=0;strokeWidth=1;" edge="1" parent="1" target="02hc7cvoN-hHNLFqZC7G-4">
          <mxGeometry width="160" relative="1" as="geometry">
            <mxPoint x="200" y="280" as="sourcePoint" />
            <mxPoint x="160" y="205" as="targetPoint" />
          </mxGeometry>
        </mxCell>
        <mxCell id="02hc7cvoN-hHNLFqZC7G-69" value="" style="endArrow=open;endSize=8;html=1;rounded=0;entryX=0.049;entryY=0.697;entryDx=0;entryDy=0;entryPerimeter=0;strokeWidth=1;exitX=0.919;exitY=0.233;exitDx=0;exitDy=0;exitPerimeter=0;" edge="1" parent="1" source="02hc7cvoN-hHNLFqZC7G-5" target="02hc7cvoN-hHNLFqZC7G-8">
          <mxGeometry width="160" relative="1" as="geometry">
            <mxPoint x="390" y="260" as="sourcePoint" />
            <mxPoint x="450" y="330" as="targetPoint" />
          </mxGeometry>
        </mxCell>
        <mxCell id="02hc7cvoN-hHNLFqZC7G-73" value="" style="endArrow=open;endSize=8;html=1;rounded=0;entryX=0;entryY=0.5;entryDx=0;entryDy=0;strokeWidth=1;exitX=0.976;exitY=0.69;exitDx=0;exitDy=0;exitPerimeter=0;" edge="1" parent="1" source="02hc7cvoN-hHNLFqZC7G-4" target="02hc7cvoN-hHNLFqZC7G-5">
          <mxGeometry width="160" relative="1" as="geometry">
            <mxPoint x="340" y="350" as="sourcePoint" />
            <mxPoint x="365" y="308" as="targetPoint" />
          </mxGeometry>
        </mxCell>
        <mxCell id="02hc7cvoN-hHNLFqZC7G-74" value="" style="endArrow=open;endSize=8;html=1;rounded=0;strokeWidth=1;exitX=0.716;exitY=0.049;exitDx=0;exitDy=0;exitPerimeter=0;" edge="1" parent="1" source="02hc7cvoN-hHNLFqZC7G-4">
          <mxGeometry width="160" relative="1" as="geometry">
            <mxPoint x="299" y="265" as="sourcePoint" />
            <mxPoint x="330" y="200" as="targetPoint" />
          </mxGeometry>
        </mxCell>
      </root>
    </mxGraphModel>
  </diagram>
</mxfile>
